<svg viewBox="0 0 96 96" xmlns="http://www.w3.org/2000/svg" xmlns:xlink="http://www.w3.org/1999/xlink" id="Icons_AngerSymbol" overflow="hidden"><path d="M48.658 35.155C44.4123 35.1667 40.3385 33.4789 37.345 30.468L27.705 20.829 33.362 15.171 43 24.812C46.1241 27.9357 51.1889 27.9357 54.313 24.812L63.953 15.171 69.61 20.829 59.97 30.469C56.9761 33.4784 52.903 35.1657 48.658 35.155Z" fill="#15819D"/><path d="M63.955 80.829 54.315 71.188C51.1909 68.0643 46.1261 68.0643 43.002 71.188L33.362 80.829 27.705 75.171 37.345 65.531C43.5933 59.2829 53.7237 59.2829 59.972 65.531L69.612 75.17Z" fill="#15819D"/><path d="M75.177 68.954 65.537 59.314C59.2992 53.061 59.2992 42.939 65.537 36.686L75.177 27.046 80.835 32.7 71.194 42.34C68.0751 45.4665 68.0751 50.5275 71.194 53.654L80.835 63.294Z" fill="#15819D"/><path d="M20.835 68.954 15.177 63.3 24.817 53.66C27.937 50.5339 27.937 45.4721 24.817 42.346L15.177 32.706 20.835 27.049 30.475 36.689C36.7121 42.9419 36.7121 53.0631 30.475 59.316Z" fill="#15819D"/></svg>